<svg width="16" height="17" viewBox="0 0 16 17" fill="none" xmlns="http://www.w3.org/2000/svg">
<path d="M14.5 8.375C14.5 10.5723 13.3281 12.5645 11.4531 13.6777C9.54883 14.7617 7.23438 14.7617 5.35938 13.6777C3.45508 12.5645 2.3125 10.5723 2.3125 8.375C2.3125 6.20703 3.45508 4.21484 5.35938 3.10156C7.23438 2.01758 9.54883 2.01758 11.4531 3.10156C13.3281 4.21484 14.5 6.20703 14.5 8.375ZM0.90625 8.375C0.90625 11.0703 2.3125 13.5312 4.65625 14.8789C6.9707 16.2266 9.8125 16.2266 12.1562 14.8789C14.4707 13.5312 15.9062 11.0703 15.9062 8.375C15.9062 5.70898 14.4707 3.24805 12.1562 1.90039C9.8125 0.552734 6.9707 0.552734 4.65625 1.90039C2.3125 3.24805 0.90625 5.70898 0.90625 8.375ZM7.70312 4.39062V8.375C7.70312 8.60938 7.82031 8.84375 7.99609 8.96094L10.8086 10.8359C11.1309 11.0703 11.5703 10.9824 11.8047 10.6602C12.0098 10.3379 11.9219 9.89844 11.5996 9.66406L9.10938 8.02344V4.39062C9.10938 4.00977 8.78711 3.6875 8.40625 3.6875C7.99609 3.6875 7.70312 4.00977 7.70312 4.39062Z" fill="#C9CED6"/>
</svg>
