<svg width="7" height="15" viewBox="0 0 7 15" fill="none" xmlns="http://www.w3.org/2000/svg">
<path d="M3.90982 1.22679L6.51339 5.6625C6.59777 5.8192 6.59777 6 6.51339 6.14464C6.42902 6.30134 6.27232 6.38571 6.10357 6.38571H0.896429C0.715625 6.38571 0.558929 6.30134 0.474554 6.14464C0.390179 6 0.390179 5.8192 0.474554 5.6625L3.07813 1.22679C3.1625 1.08214 3.3192 0.985715 3.5 0.985715C3.66875 0.985715 3.82545 1.08214 3.90982 1.22679Z" fill="#C9CED6"/>
<path d="M3.90982 14.2732L6.51339 9.8375C6.59777 9.6808 6.59777 9.5 6.51339 9.35536C6.42902 9.19866 6.27232 9.11429 6.10357 9.11429H0.896429C0.715625 9.11429 0.558929 9.19866 0.474554 9.35536C0.390179 9.5 0.390179 9.6808 0.474554 9.8375L3.07813 14.2732C3.1625 14.4179 3.3192 14.5143 3.5 14.5143C3.66875 14.5143 3.82545 14.4179 3.90982 14.2732Z" fill="#C9CED6"/>
</svg>
