<svg width="63" height="63" viewBox="0 0 63 63" fill="none" xmlns="http://www.w3.org/2000/svg">
<g filter="url(#filter0_d_1_361)">
<rect x="10.8125" y="6.5" width="42" height="42" rx="21" fill="#181E29" shape-rendering="crispEdges"/>
<rect x="11.3125" y="7" width="41" height="41" rx="20.5" stroke="#353C4A" shape-rendering="crispEdges"/>
<path d="M24.8438 30.7812C24.9375 30.4688 25.0938 30.1562 25.2812 29.9062V29.875H25.3125C25.375 29.7812 25.4688 29.6875 25.5312 29.625L35.0312 20.125C35.8125 19.3438 37.0938 19.3438 37.875 20.125L39.0938 21.3438C39.1875 21.4375 39.2812 21.5625 39.3438 21.6562C39.875 22.4375 39.7812 23.5 39.0938 24.1875L29.5938 33.6875C29.5625 33.7188 29.5 33.75 29.4688 33.8125C29.4375 33.8438 29.375 33.875 29.3438 33.9062V33.9375H29.3125C29.0625 34.125 28.75 34.2812 28.4375 34.375L26 35.0938L24.6562 35.5C24.4062 35.5625 24.125 35.5 23.9375 35.2812C23.7188 35.0938 23.6562 34.8125 23.75 34.5625L24.125 33.2188L24.8438 30.7812ZM35.6875 25.4688L33.75 23.5312L27.9375 29.3438L28.3125 30.9062L29.875 31.2812L35.6875 25.4688ZM26.75 30.7188L26.375 30.9688C26.3438 31.0312 26.3125 31.125 26.2812 31.2188L26.0625 31.9375L25.5625 33.6562L27.2812 33.1562L28 32.9375C28.0938 32.9062 28.1875 32.875 28.25 32.8438L28.5 32.5L27.5312 32.25C27.25 32.1875 27.0312 31.9688 26.9688 31.6875L26.75 30.7188ZM33.5625 26.3438L30.5625 29.3438C30.375 29.5312 30.0312 29.5312 29.8438 29.3438C29.6562 29.1562 29.6562 28.8438 29.8438 28.6562L32.8438 25.6562C33.0312 25.4375 33.375 25.4375 33.5625 25.6562C33.75 25.8438 33.75 26.1562 33.5625 26.3438Z" fill="white"/>
</g>
<defs>
<filter id="filter0_d_1_361" x="0.8125" y="0.5" width="62" height="62" filterUnits="userSpaceOnUse" color-interpolation-filters="sRGB">
<feFlood flood-opacity="0" result="BackgroundImageFix"/>
<feColorMatrix in="SourceAlpha" type="matrix" values="0 0 0 0 0 0 0 0 0 0 0 0 0 0 0 0 0 0 127 0" result="hardAlpha"/>
<feOffset dy="4"/>
<feGaussianBlur stdDeviation="5"/>
<feComposite in2="hardAlpha" operator="out"/>
<feColorMatrix type="matrix" values="0 0 0 0 0 0 0 0 0 0 0 0 0 0 0 0 0 0 0.1 0"/>
<feBlend mode="normal" in2="BackgroundImageFix" result="effect1_dropShadow_1_361"/>
<feBlend mode="normal" in="SourceGraphic" in2="effect1_dropShadow_1_361" result="shape"/>
</filter>
</defs>
</svg>
