<svg width="16" height="14" viewBox="0 0 16 14" fill="none" xmlns="http://www.w3.org/2000/svg">
<path d="M0.8125 2.04297C0.8125 1.36914 1.33984 0.8125 2.01367 0.8125H14.582C15.2559 0.8125 15.8125 1.36914 15.8125 2.04297C15.8125 2.33594 15.6953 2.59961 15.5195 2.80469L10.6562 8.81055V13C10.6562 13.5273 10.2168 13.9375 9.68945 13.9375C9.48438 13.9375 9.2793 13.8789 9.10352 13.7324L6.4082 11.5938C6.11523 11.3594 5.96875 11.0371 5.96875 10.6855V8.81055L1.07617 2.80469C0.900391 2.59961 0.8125 2.33594 0.8125 2.04297ZM2.42383 2.21875L7.19922 8.10742C7.31641 8.25391 7.375 8.40039 7.375 8.54688V10.5684L9.25 12.0625V8.54688C9.25 8.40039 9.2793 8.25391 9.39648 8.10742L14.2012 2.21875H2.42383Z" fill="#C9CED6"/>
</svg>
