<svg width="102" height="102" viewBox="0 0 102 102" fill="none" xmlns="http://www.w3.org/2000/svg">
<g filter="url(#filter0_d_102_616)">
<rect x="12" y="13" width="58" height="58" rx="29" fill="#144EE3" shape-rendering="crispEdges"/>
<rect x="12.5" y="13.5" width="57" height="57" rx="28.5" stroke="#144EE3" shape-rendering="crispEdges"/>
<path d="M40.9766 34C40.4141 34 39.9766 34.4688 39.9766 35V35.625C37.6953 36.0625 35.9766 38.0938 35.9766 40.5V41.0938C35.9766 42.5625 35.4141 44 34.4453 45.0938L34.2266 45.3438C33.9453 45.6562 33.8828 46.0625 34.0391 46.4375C34.1953 46.7812 34.5703 47 34.9766 47H46.9766C47.3516 47 47.7266 46.7812 47.8828 46.4375C48.0391 46.0625 47.9766 45.6562 47.6953 45.3438L47.4766 45.0938C46.5078 44 45.9766 42.5625 45.9766 41.0938V40.5C45.9766 38.0938 44.2578 36.0625 41.9766 35.625V35C41.9766 34.4688 41.5078 34 40.9766 34ZM42.3828 49.4375C42.7578 49.0625 42.9766 48.5312 42.9766 48H40.9766H38.9766C38.9766 48.5312 39.1641 49.0625 39.5391 49.4375C39.9141 49.8125 40.4453 50 40.9766 50C41.5078 50 42.0078 49.8125 42.3828 49.4375Z" fill="white"/>
</g>
<defs>
<filter id="filter0_d_102_616" x="0" y="0" width="102" height="102" filterUnits="userSpaceOnUse" color-interpolation-filters="sRGB">
<feFlood flood-opacity="0" result="BackgroundImageFix"/>
<feColorMatrix in="SourceAlpha" type="matrix" values="0 0 0 0 0 0 0 0 0 0 0 0 0 0 0 0 0 0 127 0" result="hardAlpha"/>
<feOffset dx="10" dy="9"/>
<feGaussianBlur stdDeviation="11"/>
<feComposite in2="hardAlpha" operator="out"/>
<feColorMatrix type="matrix" values="0 0 0 0 0.0784314 0 0 0 0 0.305882 0 0 0 0 0.890196 0 0 0 0.38 0"/>
<feBlend mode="normal" in2="BackgroundImageFix" result="effect1_dropShadow_102_616"/>
<feBlend mode="normal" in="SourceGraphic" in2="effect1_dropShadow_102_616" result="shape"/>
</filter>
</defs>
</svg>
