<svg width="14" height="14" viewBox="0 0 14 14" fill="none" xmlns="http://www.w3.org/2000/svg">
<path d="M7.375 2.21875V12.5312H6.4375V2.21875H7.375ZM6.4375 0.8125C5.64648 0.8125 5.03125 1.45703 5.03125 2.21875V12.5312C5.03125 13.3223 5.64648 13.9375 6.4375 13.9375H7.375C8.13672 13.9375 8.78125 13.3223 8.78125 12.5312V2.21875C8.78125 1.45703 8.13672 0.8125 7.375 0.8125H6.4375ZM2.6875 7.84375V12.5312H1.75V7.84375H2.6875ZM1.75 6.4375C0.958984 6.4375 0.34375 7.08203 0.34375 7.84375V12.5312C0.34375 13.3223 0.958984 13.9375 1.75 13.9375H2.6875C3.44922 13.9375 4.09375 13.3223 4.09375 12.5312V7.84375C4.09375 7.08203 3.44922 6.4375 2.6875 6.4375H1.75ZM11.125 4.09375H12.0625V12.5312H11.125V4.09375ZM9.71875 4.09375V12.5312C9.71875 13.3223 10.334 13.9375 11.125 13.9375H12.0625C12.8242 13.9375 13.4688 13.3223 13.4688 12.5312V4.09375C13.4688 3.33203 12.8242 2.6875 12.0625 2.6875H11.125C10.334 2.6875 9.71875 3.33203 9.71875 4.09375Z" fill="#C9CED6"/>
</svg>
