<svg width="15" height="16" viewBox="0 0 15 16" fill="none" xmlns="http://www.w3.org/2000/svg">
<path d="M7.40625 0.875C7.9043 0.875 8.37305 0.933594 8.8418 1.02148C9.07617 1.08008 9.48633 1.19727 9.7207 1.60742C9.7793 1.72461 9.80859 1.8418 9.83789 1.95898L10.1309 3.10156C10.1602 3.24805 10.4531 3.42383 10.6289 3.36523L11.7422 3.04297C11.8594 3.01367 11.9766 2.98438 12.0938 2.98438C12.5625 2.98438 12.8848 3.27734 13.0312 3.45312C13.6758 4.18555 14.1738 5.03516 14.4961 5.97266C14.584 6.20703 14.6719 6.61719 14.4082 6.99805C14.3496 7.11523 14.2617 7.20312 14.1738 7.29102L13.3535 8.11133C13.207 8.22852 13.207 8.55078 13.3535 8.66797L14.1738 9.48828C14.2617 9.57617 14.3496 9.66406 14.4082 9.78125C14.6426 10.1621 14.5547 10.5723 14.4961 10.8066C14.1738 11.7441 13.6758 12.5938 13.0312 13.3262C12.8848 13.502 12.5625 13.7949 12.0938 13.7949C11.9766 13.7949 11.8594 13.7656 11.7422 13.7363L10.6289 13.3848C10.4531 13.3555 10.1602 13.502 10.1309 13.6777L9.83789 14.8203C9.80859 14.9375 9.7793 15.0547 9.7207 15.1719C9.48633 15.582 9.07617 15.6992 8.8418 15.7578C8.37305 15.8457 7.9043 15.875 7.40625 15.875C6.9082 15.875 6.41016 15.8457 5.94141 15.7578C5.70703 15.6992 5.29688 15.582 5.0625 15.1719C5.00391 15.0547 4.97461 14.9375 4.94531 14.8203L4.65234 13.6777C4.62305 13.502 4.33008 13.3555 4.18359 13.3848L3.07031 13.7363C2.95312 13.7656 2.80664 13.7656 2.68945 13.7949C2.2207 13.7949 1.89844 13.502 1.75195 13.3262C1.10742 12.5938 0.609375 11.7441 0.287109 10.8066C0.228516 10.5723 0.140625 10.1621 0.375 9.75195C0.433594 9.66406 0.521484 9.54688 0.609375 9.45898L1.45898 8.66797C1.57617 8.55078 1.57617 8.22852 1.45898 8.11133L0.609375 7.29102C0.521484 7.20312 0.433594 7.11523 0.375 6.99805C0.140625 6.61719 0.228516 6.20703 0.287109 5.97266C0.609375 5.03516 1.10742 4.18555 1.75195 3.45312C1.89844 3.27734 2.2207 2.98438 2.68945 2.98438C2.80664 2.98438 2.95312 3.01367 3.07031 3.04297L4.18359 3.36523C4.33008 3.42383 4.62305 3.24805 4.65234 3.10156L4.94531 1.95898C4.97461 1.8418 5.00391 1.72461 5.0625 1.60742C5.29688 1.19727 5.70703 1.08008 5.94141 1.02148C6.41016 0.933594 6.9082 0.875 7.40625 0.875ZM6.29297 2.39844L6.0293 3.42383C5.79492 4.36133 4.71094 5.00586 3.77344 4.74219L2.74805 4.41992C2.2793 5.00586 1.89844 5.65039 1.63477 6.35352L2.42578 7.08594C3.12891 7.75977 3.12891 9.01953 2.42578 9.69336L1.63477 10.4258C1.89844 11.1289 2.2793 11.7734 2.74805 12.3594L3.77344 12.0371C4.71094 11.7734 5.79492 12.418 6.0293 13.3555L6.29297 14.3809C6.99609 14.5273 7.78711 14.5273 8.51953 14.3809L8.75391 13.3555C8.98828 12.418 10.0723 11.7734 11.0098 12.0371L12.0352 12.3594C12.5039 11.7734 12.8848 11.1289 13.1484 10.4258L12.3867 9.69336C11.6836 9.01953 11.6836 7.75977 12.3867 7.08594L13.1484 6.35352C12.8848 5.65039 12.5039 5.00586 12.0352 4.41992L11.0098 4.74219C10.1016 5.00586 8.98828 4.36133 8.75391 3.42383L8.51953 2.39844C7.78711 2.25195 6.99609 2.25195 6.29297 2.39844ZM6 8.375C6 8.90234 6.26367 9.3418 6.70312 9.60547C7.11328 9.86914 7.66992 9.86914 8.10938 9.60547C8.51953 9.3418 8.8125 8.90234 8.8125 8.375C8.8125 7.87695 8.51953 7.4375 8.10938 7.17383C7.66992 6.91016 7.11328 6.91016 6.70312 7.17383C6.26367 7.4375 6 7.87695 6 8.375ZM7.40625 11.1875C6.38086 11.1875 5.47266 10.6602 4.94531 9.78125C4.44727 8.93164 4.44727 7.84766 4.94531 6.96875C5.47266 6.11914 6.38086 5.5625 7.40625 5.5625C8.40234 5.5625 9.31055 6.11914 9.83789 6.96875C10.3359 7.84766 10.3359 8.93164 9.83789 9.78125C9.31055 10.6602 8.40234 11.1875 7.40625 11.1875Z" fill="#C9CED6"/>
</svg>
