<svg width="108" height="37" viewBox="0 0 108 37" fill="none" xmlns="http://www.w3.org/2000/svg">
<path d="M0.382414 29V2.15376H6.87113V23.7304H18.0396V29H0.382414ZM21.3986 29V8.86532H27.8087V29H21.3986ZM24.6102 6.51889C23.7101 6.51889 22.9367 6.22177 22.29 5.62752C21.6433 5.02452 21.32 4.29918 21.32 3.4515C21.32 2.61256 21.6433 1.89596 22.29 1.3017C22.9367 0.698712 23.7101 0.397216 24.6102 0.397216C25.5191 0.397216 26.2925 0.698712 26.9304 1.3017C27.5771 1.89596 27.9005 2.61256 27.9005 3.4515C27.9005 4.29918 27.5771 5.02452 26.9304 5.62752C26.2925 6.22177 25.5191 6.51889 24.6102 6.51889ZM38.2988 17.5169V29H31.8887V8.86532H37.9842V12.5619H38.207C38.6527 11.3297 39.413 10.3641 40.4879 9.66494C41.5628 8.95708 42.8431 8.60315 44.3287 8.60315C45.7444 8.60315 46.9723 8.92212 48.0122 9.56007C49.0609 10.1893 49.8736 11.0719 50.4504 12.208C51.0359 13.3353 51.3243 14.6549 51.3156 16.1668V29H44.9055V17.4252C44.9142 16.3066 44.6302 15.4327 44.0534 14.8035C43.4854 14.1743 42.6945 13.8597 41.6808 13.8597C41.0079 13.8597 40.4136 14.0082 39.898 14.3054C39.3912 14.5937 38.9979 15.0088 38.7183 15.5507C38.4474 16.0925 38.3075 16.7479 38.2988 17.5169ZM61.065 23.7173L61.0912 16.075H61.9826L67.6455 8.86532H74.9076L66.4919 19.1948H64.8009L61.065 23.7173ZM55.2842 29V2.15376H61.6942V29H55.2842ZM67.7897 29L62.5201 20.6368L66.741 16.0881L75.196 29H67.7897ZM83.6117 2.15376V29H77.2016V2.15376H83.6117ZM91.6111 36.5505C90.8421 36.5505 90.1168 36.4893 89.4351 36.367C88.7535 36.2534 88.168 36.1004 87.6786 35.9082L89.0943 31.2547C89.7235 31.4644 90.2915 31.5867 90.7984 31.6217C91.314 31.6567 91.7553 31.5736 92.1224 31.3726C92.4981 31.1804 92.7865 30.8352 92.9875 30.3371L93.2366 29.7341L86.0793 8.86532H92.7909L96.5006 23.2323H96.7103L100.472 8.86532H107.223L99.6335 30.927C99.2665 32.0281 98.7465 32.9981 98.0736 33.837C97.4095 34.6847 96.5487 35.3489 95.4913 35.8295C94.4426 36.3102 93.1492 36.5505 91.6111 36.5505Z" fill="url(#paint0_radial_1_192)"/>
<defs>
<radialGradient id="paint0_radial_1_192" cx="0" cy="0" r="1" gradientUnits="userSpaceOnUse" gradientTransform="translate(4.12143 29.3458) rotate(-4.80508) scale(105.083 5704.61)">
<stop stop-color="#EB568E"/>
<stop offset="1" stop-color="#144EE3"/>
</radialGradient>
</defs>
</svg>
